PathFileType	4	(X/Y/Z)	 1.8Hz3min.trc
DataRate	CameraRate	NumFrames	NumMarkers	Units	OrigDataRate	OrigDataStartFrame	OrigNumFrames
200	200	9	39	m	200	251	1000
Frame#	Time	C7			LSH			RSH			MAN			RASI			LASI			HIPR			HIPL			RPSI			LPSI			COX			RTHI1			RTHI2			RTHI3			RTHI4			RLKN			RMKN			RSHA1			RSHA2			RSHA3			RSHA4			RHEEL			RMET5			RMET1			RTOE			LTHI1			LTHI2			LTHI3			LTHI4			LLKN			LMKN			LSHA1			LSHA2			LSHA3			LSHA4			LHEEL			LMET5			LMET1			LTOE			
		X1	Y1	Z1	X2	Y2	Z2	X3	Y3	Z3	X4	Y4	Z4	X5	Y5	Z5	X6	Y6	Z6	X7	Y7	Z7	X8	Y8	Z8	X9	Y9	Z9	X10	Y10	Z10	X11	Y11	Z11	X12	Y12	Z12	X13	Y13	Z13	X14	Y14	Z14	X15	Y15	Z15	X16	Y16	Z16	X17	Y17	Z17	X18	Y18	Z18	X19	Y19	Z19	X20	Y20	Z20	X21	Y21	Z21	X22	Y22	Z22	X23	Y23	Z23	X24	Y24	Z24	X25	Y25	Z25	X26	Y26	Z26	X27	Y27	Z27	X28	Y28	Z28	X29	Y29	Z29	X30	Y30	Z30	X31	Y31	Z31	X32	Y32	Z32	X33	Y33	Z33	X34	Y34	Z34	X35	Y35	Z35	X36	Y36	Z36	X37	Y37	Z37	X38	Y38	Z38	X39	Y39	Z39	
251	1.2550	-0.304706	1.547951	-0.536903	-0.266388	1.505662	-0.779130	-0.236881	1.509483	-0.326413	-0.165387	1.462471	-0.551545	-0.228712	1.010237	-0.426841	-0.239374	1.011578	-0.662092	-0.288097	1.071890	-0.376162	-0.303238	1.081491	-0.703152	-0.410002	1.057983	-0.478666	-0.411396	1.064872	-0.586952	-0.420467	1.056814	-0.534143	-0.279088	0.789503	-0.322467	-0.252992	0.738424	-0.306587	-0.194682	0.766304	-0.307276	-0.214856	0.821710	-0.324905	-0.154954	0.466523	-0.314170	-0.127269	0.457194	-0.417654	-0.263990	0.362005	-0.289256	-0.290618	0.328716	-0.297118	-0.217866	0.332850	-0.305865	-0.239154	0.299079	-0.310093	-0.454591	0.065744	-0.393381	-0.291176	0.024400	-0.292269	-0.237197	0.043187	-0.382336	-0.201214	0.030037	-0.374756	-0.277343	0.771872	-0.757389	-0.246595	0.721183	-0.772195	-0.188528	0.750257	-0.774462	-0.211532	0.804254	-0.761299	-0.149236	0.471997	-0.762908	-0.113339	0.461457	-0.669333	-0.302354	0.350448	-0.772531	-0.322354	0.315908	-0.766426	-0.266828	0.289208	-0.778631	-0.253207	0.330931	-0.783753	-0.454284	0.063462	-0.698607	-0.294472	0.028526	-0.800383	-0.234909	0.040820	-0.718277	-0.194998	0.028397	-0.733757	
252	1.2600	-0.304817	1.551912	-0.537015	-0.266230	1.510152	-0.779175	-0.236729	1.514077	-0.326547	-0.165205	1.466958	-0.551595	-0.227494	1.014191	-0.426485	-0.237687	1.015698	-0.661763	-0.287084	1.076013	-0.376082	-0.301976	1.085233	-0.703063	-0.408685	1.061649	-0.478679	-0.409971	1.068556	-0.587009	-0.419105	1.060505	-0.534225	-0.279228	0.792585	-0.322833	-0.253626	0.741225	-0.307068	-0.195078	0.768625	-0.307378	-0.214585	0.824310	-0.325012	-0.157421	0.468707	-0.314670	-0.129617	0.459207	-0.418100	-0.265870	0.363438	-0.289745	-0.292261	0.329926	-0.297495	-0.219516	0.334490	-0.306153	-0.240539	0.300618	-0.310182	-0.454480	0.066199	-0.393345	-0.291169	0.024448	-0.292329	-0.237160	0.043179	-0.382370	-0.201163	0.030015	-0.374836	-0.277216	0.775294	-0.757113	-0.246967	0.724286	-0.771851	-0.188615	0.752781	-0.774090	-0.211083	0.807006	-0.761014	-0.151759	0.474137	-0.762236	-0.115875	0.463414	-0.668992	-0.304171	0.351750	-0.772115	-0.323990	0.317095	-0.766070	-0.268302	0.290658	-0.778296	-0.254922	0.332500	-0.783381	-0.454217	0.063805	-0.698739	-0.294408	0.028510	-0.800390	-0.234889	0.040795	-0.718259	-0.194959	0.028402	-0.733710	
253	1.2650	-0.304946	1.556093	-0.537132	-0.266078	1.514886	-0.779212	-0.236588	1.518956	-0.326696	-0.165020	1.471741	-0.551637	-0.226228	1.018364	-0.426119	-0.235929	1.020039	-0.661421	-0.286085	1.080294	-0.375989	-0.300529	1.089293	-0.702956	-0.407316	1.065536	-0.478700	-0.408483	1.072469	-0.587094	-0.417700	1.064429	-0.534317	-0.279363	0.795903	-0.323206	-0.254266	0.744267	-0.307557	-0.195488	0.771174	-0.307515	-0.214281	0.827095	-0.325194	-0.160080	0.471047	-0.315215	-0.132111	0.461385	-0.418554	-0.267883	0.364995	-0.290246	-0.294011	0.331267	-0.297888	-0.221282	0.336289	-0.306469	-0.242020	0.302317	-0.310251	-0.454360	0.066772	-0.393294	-0.291151	0.024489	-0.292391	-0.237117	0.043173	-0.382403	-0.201102	0.029981	-0.374930	-0.277223	0.778866	-0.756791	-0.247510	0.727523	-0.771465	-0.188870	0.755417	-0.773762	-0.210770	0.809882	-0.760770	-0.154490	0.476482	-0.761555	-0.118658	0.465553	-0.668578	-0.306132	0.353169	-0.771696	-0.325757	0.318390	-0.765705	-0.269898	0.292256	-0.777963	-0.256780	0.334203	-0.782994	-0.454124	0.064238	-0.698866	-0.294342	0.028489	-0.800382	-0.234871	0.040767	-0.718239	-0.194931	0.028406	-0.733662	
254	1.2700	-0.305093	1.560470	-0.537253	-0.265942	1.519844	-0.779239	-0.236482	1.524074	-0.326861	-0.164832	1.476802	-0.551670	-0.224914	1.022725	-0.425767	-0.234110	1.024596	-0.661078	-0.285056	1.084738	-0.375894	-0.298886	1.093684	-0.702826	-0.405903	1.069632	-0.478724	-0.406948	1.076595	-0.587203	-0.416257	1.068568	-0.534404	-0.279492	0.799446	-0.323587	-0.254894	0.747548	-0.307999	-0.195909	0.773941	-0.307686	-0.213964	0.830059	-0.325423	-0.162910	0.473549	-0.315784	-0.134735	0.463728	-0.419022	-0.270011	0.366697	-0.290732	-0.295863	0.332761	-0.298289	-0.223159	0.338263	-0.306790	-0.243608	0.304164	-0.310368	-0.454244	0.067501	-0.393278	-0.291130	0.024531	-0.292494	-0.237066	0.043166	-0.382432	-0.201036	0.029938	-0.375037	-0.277352	0.782590	-0.756429	-0.248208	0.730900	-0.771037	-0.189277	0.758173	-0.773465	-0.210577	0.812890	-0.760556	-0.157419	0.479021	-0.760877	-0.121671	0.467870	-0.668072	-0.308210	0.354678	-0.771282	-0.327626	0.319768	-0.765350	-0.271570	0.293945	-0.777614	-0.258743	0.336025	-0.782597	-0.454010	0.064789	-0.698978	-0.294272	0.028468	-0.800356	-0.234855	0.040732	-0.718215	-0.194917	0.028398	-0.733608	
255	1.2750	-0.305257	1.565018	-0.537375	-0.265833	1.524997	-0.779253	-0.236413	1.529403	-0.327041	-0.164641	1.482116	-0.551690	-0.223550	1.027251	-0.425449	-0.232272	1.029356	-0.660732	-0.283990	1.089341	-0.375797	-0.297062	1.098401	-0.702673	-0.404450	1.073923	-0.478741	-0.405377	1.080916	-0.587333	-0.414788	1.072903	-0.534495	-0.279600	0.803226	-0.323963	-0.255512	0.751061	-0.308430	-0.196350	0.776904	-0.307876	-0.213633	0.833192	-0.325699	-0.165881	0.476204	-0.316382	-0.137486	0.466236	-0.419509	-0.272230	0.368567	-0.291205	-0.297800	0.334433	-0.298704	-0.225133	0.340420	-0.307107	-0.245298	0.306200	-0.310561	-0.454120	0.068404	-0.393278	-0.291091	0.024556	-0.292659	-0.237010	0.043160	-0.382461	-0.200969	0.029887	-0.375151	-0.277581	0.786465	-0.756025	-0.249034	0.734433	-0.770571	-0.189814	0.761055	-0.773186	-0.210487	0.816038	-0.760366	-0.160535	0.481736	-0.760201	-0.124895	0.470379	-0.667463	-0.310376	0.356268	-0.770891	-0.329564	0.321231	-0.765006	-0.273302	0.295763	-0.777262	-0.260784	0.337957	-0.782190	-0.453875	0.065501	-0.699084	-0.294198	0.028448	-0.800309	-0.234841	0.040698	-0.718190	-0.194918	0.028380	-0.733550	
256	1.2800	-0.305435	1.569722	-0.537502	-0.265733	1.530318	-0.779240	-0.236382	1.534913	-0.327237	-0.164485	1.487566	-0.551715	-0.222149	1.031914	-0.425177	-0.230439	1.034300	-0.660385	-0.282861	1.094090	-0.375702	-0.295070	1.103421	-0.702492	-0.402965	1.078402	-0.478743	-0.403788	1.085412	-0.587477	-0.413306	1.077427	-0.534573	-0.279688	0.807207	-0.324335	-0.256121	0.754785	-0.308878	-0.196813	0.780052	-0.308086	-0.213303	0.836495	-0.326005	-0.168958	0.479026	-0.317023	-0.140345	0.468918	-0.420019	-0.274524	0.370623	-0.291673	-0.299808	0.336288	-0.299146	-0.227180	0.342806	-0.307417	-0.247076	0.308416	-0.310847	-0.453977	0.069500	-0.393242	-0.291036	0.024566	-0.292886	-0.236946	0.043153	-0.382486	-0.200905	0.029829	-0.375273	-0.277888	0.790488	-0.755592	-0.249956	0.738117	-0.770076	-0.190453	0.764077	-0.772916	-0.210484	0.819325	-0.760185	-0.163787	0.484623	-0.759535	-0.128280	0.473080	-0.666758	-0.312600	0.357965	-0.770522	-0.331544	0.322786	-0.764685	-0.275071	0.297712	-0.776916	-0.262871	0.340023	-0.781775	-0.453730	0.066428	-0.699210	-0.294118	0.028433	-0.800240	-0.234832	0.040660	-0.718162	-0.194939	0.028361	-0.733492	
257	1.2850	-0.305629	1.574551	-0.537637	-0.265643	1.535781	-0.779199	-0.236388	1.540572	-0.327449	-0.164363	1.493129	-0.551744	-0.220720	1.036692	-0.424961	-0.228632	1.039419	-0.660042	-0.281629	1.098985	-0.375626	-0.292945	1.108704	-0.702292	-0.401458	1.083048	-0.478720	-0.402201	1.090070	-0.587627	-0.411826	1.082124	-0.534626	-0.279748	0.811376	-0.324694	-0.256704	0.758714	-0.309281	-0.197334	0.783454	-0.308272	-0.212984	0.839957	-0.326324	-0.172114	0.482000	-0.317698	-0.143296	0.471776	-0.420549	-0.276854	0.372869	-0.292124	-0.301859	0.338344	-0.299597	-0.229273	0.345422	-0.307718	-0.248909	0.310841	-0.311177	-0.453780	0.070796	-0.393183	-0.291005	0.024613	-0.293049	-0.236875	0.043146	-0.382506	-0.200864	0.029792	-0.375374	-0.278252	0.794661	-0.755142	-0.250944	0.741953	-0.769557	-0.191164	0.767244	-0.772654	-0.210554	0.822748	-0.760007	-0.167146	0.487674	-0.758871	-0.131785	0.475984	-0.665955	-0.314852	0.359805	-0.770171	-0.333533	0.324483	-0.764386	-0.276856	0.299830	-0.776583	-0.264981	0.342258	-0.781364	-0.453577	0.067604	-0.699367	-0.294029	0.028426	-0.800148	-0.234828	0.040622	-0.718134	-0.194982	0.028339	-0.733432	
258	1.2900	-0.305836	1.579485	-0.537781	-0.265558	1.541361	-0.779132	-0.236430	1.546353	-0.327678	-0.164279	1.498780	-0.551776	-0.219265	1.041566	-0.424813	-0.226871	1.044693	-0.659707	-0.280280	1.104030	-0.375575	-0.290725	1.114208	-0.702065	-0.399941	1.087844	-0.478667	-0.400635	1.094864	-0.587771	-0.410352	1.086973	-0.534653	-0.279771	0.815732	-0.325038	-0.257253	0.762833	-0.309657	-0.197895	0.787082	-0.308437	-0.212697	0.843599	-0.326631	-0.175302	0.485155	-0.318361	-0.146308	0.474807	-0.421095	-0.279198	0.375327	-0.292565	-0.303924	0.340596	-0.300048	-0.231369	0.348253	-0.307950	-0.250750	0.313451	-0.311500	-0.453514	0.072310	-0.393088	-0.290998	0.024699	-0.293166	-0.236795	0.043138	-0.382518	-0.200846	0.029770	-0.375460	-0.278651	0.798983	-0.754677	-0.251964	0.745945	-0.769020	-0.191924	0.770567	-0.772386	-0.210674	0.826319	-0.759831	-0.170538	0.490895	-0.758216	-0.135360	0.479083	-0.665070	-0.317097	0.361834	-0.769828	-0.335505	0.326358	-0.764104	-0.278619	0.302150	-0.776256	-0.267077	0.344701	-0.780966	-0.453406	0.069063	-0.699568	-0.293928	0.028434	-0.800031	-0.234828	0.040580	-0.718108	-0.195049	0.028315	-0.733371	
259	1.2950	-0.306056	1.584505	-0.537937	-0.265473	1.547029	-0.779041	-0.236504	1.552240	-0.327921	-0.164231	1.504498	-0.551817	-0.217799	1.046516	-0.424731	-0.225175	1.050097	-0.659383	-0.278833	1.109216	-0.375544	-0.288461	1.119881	-0.701822	-0.398418	1.092776	-0.478575	-0.399100	1.099782	-0.587902	-0.408898	1.091959	-0.534654	-0.279751	0.820260	-0.325357	-0.257763	0.767125	-0.310027	-0.198465	0.790918	-0.308597	-0.212415	0.847416	-0.326940	-0.178477	0.488484	-0.319027	-0.149347	0.478019	-0.421654	-0.281522	0.377996	-0.293000	-0.305962	0.343043	-0.300484	-0.233441	0.351288	-0.308132	-0.252563	0.316278	-0.311770	-0.453143	0.074047	-0.392938	-0.291007	0.024816	-0.293225	-0.236707	0.043130	-0.382520	-0.200851	0.029762	-0.375529	-0.279063	0.803448	-0.754203	-0.252985	0.750093	-0.768476	-0.192700	0.774063	-0.772114	-0.210827	0.830042	-0.759653	-0.173911	0.494295	-0.757560	-0.138946	0.482386	-0.664123	-0.319298	0.364089	-0.769492	-0.337424	0.328458	-0.763836	-0.280339	0.304727	-0.775953	-0.269133	0.347373	-0.780590	-0.453197	0.070825	-0.699840	-0.293810	0.028459	-0.799886	-0.234830	0.040536	-0.718083	-0.195136	0.028290	-0.733308	
